<svg width="1292" height="537" viewBox="0 0 1292 537" fill="none" xmlns="http://www.w3.org/2000/svg">
<path d="M1197.6 417.612L1192.05 412.134L1189.78 420.871C1189.38 422.406 1189.83 424.038 1190.96 425.152C1192.7 426.877 1195.52 426.859 1197.24 425.112L1197.64 424.705C1199.59 422.734 1199.57 419.558 1197.6 417.612Z" fill="#D2DFFF"/>
<path d="M1140.95 311.983L1229.36 344.504L1196.84 432.914L1108.43 400.393L1140.95 311.983Z" fill="white" fill-opacity="0.01"/>
<path d="M1176.1 343.624L1178.7 344.582C1185.74 347.17 1191.65 352.122 1195.44 358.591L1198.46 363.759L1201.7 370.761C1202.87 373.293 1205.57 374.752 1208.33 374.344C1210.69 373.995 1212.56 376.3 1211.74 378.54L1208.45 387.483C1207.56 389.901 1205.2 391.456 1202.63 391.317L1202.2 391.294C1198.24 391.079 1194.3 392.091 1190.93 394.19L1188.39 395.779C1179.68 402.132 1168.36 403.722 1158.24 400.001L1155.7 399.068C1140.39 393.436 1132.55 376.459 1138.18 361.149C1143.81 345.838 1160.79 337.992 1176.1 343.624Z" fill="#FFE9AB" fill-opacity="0.3"/>
<path fill-rule="evenodd" clip-rule="evenodd" d="M1136.37 370.309C1139.24 369.481 1142.79 369.136 1146.74 370.252C1151.28 371.537 1157.82 375.484 1163.62 379.412C1172.29 385.298 1181.84 389.931 1192.11 392.012C1192.86 392.164 1193.6 392.328 1194.35 392.505C1196.84 391.567 1199.51 391.148 1202.2 391.294L1202.63 391.317C1205.19 391.455 1207.54 389.912 1208.44 387.51L1211.75 378.52C1212.55 376.286 1210.68 373.996 1208.33 374.344C1205.57 374.752 1202.87 373.293 1201.7 370.761L1198.46 363.759L1195.44 358.591C1191.65 352.122 1185.74 347.17 1178.7 344.582L1176.1 343.624C1160.79 337.992 1143.81 345.838 1138.18 361.149C1137.07 364.171 1136.48 367.258 1136.37 370.309Z" fill="#FFD562" fill-opacity="0.3"/>
<g clip-path="url(#paint0_diamond_91_65_clip_path)" data-figma-skip-parse="true"><g transform="matrix(-0.00195553 0.0307535 -0.0350551 -0.00222906 1175.09 376.427)"><rect x="0" y="0" width="245.088" height="282.021" fill="url(#paint0_diamond_91_65)" opacity="0.5" shape-rendering="crispEdges"/><rect x="0" y="0" width="245.088" height="282.021" transform="scale(1 -1)" fill="url(#paint0_diamond_91_65)" opacity="0.5" shape-rendering="crispEdges"/><rect x="0" y="0" width="245.088" height="282.021" transform="scale(-1 1)" fill="url(#paint0_diamond_91_65)" opacity="0.5" shape-rendering="crispEdges"/><rect x="0" y="0" width="245.088" height="282.021" transform="scale(-1)" fill="url(#paint0_diamond_91_65)" opacity="0.5" shape-rendering="crispEdges"/></g></g><ellipse cx="1175.09" cy="376.427" rx="8.78153" ry="6.38657" transform="rotate(2.65995 1175.09 376.427)" data-figma-gradient-fill="{&#34;type&#34;:&#34;GRADIENT_DIAMOND&#34;,&#34;stops&#34;:[{&#34;color&#34;:{&#34;r&#34;:1.0,&#34;g&#34;:0.70687502622604370,&#34;b&#34;:0.16249999403953552,&#34;a&#34;:1.0},&#34;position&#34;:0.0},{&#34;color&#34;:{&#34;r&#34;:1.0,&#34;g&#34;:0.92291343212127686,&#34;b&#34;:0.78000003099441528,&#34;a&#34;:1.0},&#34;position&#34;:1.0}],&#34;stopsVar&#34;:[{&#34;color&#34;:{&#34;r&#34;:1.0,&#34;g&#34;:0.70687502622604370,&#34;b&#34;:0.16249999403953552,&#34;a&#34;:1.0},&#34;position&#34;:0.0},{&#34;color&#34;:{&#34;r&#34;:1.0,&#34;g&#34;:0.92291343212127686,&#34;b&#34;:0.78000003099441528,&#34;a&#34;:1.0},&#34;position&#34;:1.0}],&#34;transform&#34;:{&#34;m00&#34;:-3.9110660552978516,&#34;m01&#34;:-70.1101074218750,&#34;m02&#34;:1212.0996093750,&#34;m10&#34;:61.50695800781250,&#34;m11&#34;:-4.4581179618835449,&#34;m12&#34;:347.90292358398438},&#34;opacity&#34;:0.50,&#34;blendMode&#34;:&#34;NORMAL&#34;,&#34;visible&#34;:true}"/>
<g clip-path="url(#paint1_diamond_91_65_clip_path)" data-figma-skip-parse="true"><g transform="matrix(-0.0115028 0.013606 -0.0142709 -0.0121328 1189.64 378.625)"><rect x="0" y="0" width="269.244" height="307.291" fill="url(#paint1_diamond_91_65)" opacity="0.5" shape-rendering="crispEdges"/><rect x="0" y="0" width="269.244" height="307.291" transform="scale(1 -1)" fill="url(#paint1_diamond_91_65)" opacity="0.5" shape-rendering="crispEdges"/><rect x="0" y="0" width="269.244" height="307.291" transform="scale(-1 1)" fill="url(#paint1_diamond_91_65)" opacity="0.5" shape-rendering="crispEdges"/><rect x="0" y="0" width="269.244" height="307.291" transform="scale(-1)" fill="url(#paint1_diamond_91_65)" opacity="0.5" shape-rendering="crispEdges"/></g></g><ellipse cx="1189.64" cy="378.625" rx="4.68275" ry="3.69264" transform="rotate(39.3096 1189.64 378.625)" data-figma-gradient-fill="{&#34;type&#34;:&#34;GRADIENT_DIAMOND&#34;,&#34;stops&#34;:[{&#34;color&#34;:{&#34;r&#34;:1.0,&#34;g&#34;:0.70687502622604370,&#34;b&#34;:0.16249999403953552,&#34;a&#34;:1.0},&#34;position&#34;:0.0},{&#34;color&#34;:{&#34;r&#34;:1.0,&#34;g&#34;:0.92291343212127686,&#34;b&#34;:0.78000003099441528,&#34;a&#34;:1.0},&#34;position&#34;:1.0}],&#34;stopsVar&#34;:[{&#34;color&#34;:{&#34;r&#34;:1.0,&#34;g&#34;:0.70687502622604370,&#34;b&#34;:0.16249999403953552,&#34;a&#34;:1.0},&#34;position&#34;:0.0},{&#34;color&#34;:{&#34;r&#34;:1.0,&#34;g&#34;:0.92291343212127686,&#34;b&#34;:0.78000003099441528,&#34;a&#34;:1.0},&#34;position&#34;:1.0}],&#34;transform&#34;:{&#34;m00&#34;:-23.005678176879883,&#34;m01&#34;:-28.541805267333984,&#34;m02&#34;:1215.4138183593750,&#34;m10&#34;:27.212011337280273,&#34;m11&#34;:-24.265596389770508,&#34;m12&#34;:377.15176391601562},&#34;opacity&#34;:0.50,&#34;blendMode&#34;:&#34;NORMAL&#34;,&#34;visible&#34;:true}"/>
<g clip-path="url(#paint2_diamond_91_65_clip_path)" data-figma-skip-parse="true"><g transform="matrix(-0.00251501 0.0160872 -0.0197864 -0.00309333 1191.89 388.561)"><rect x="0" y="0" width="419.372" height="383.811" fill="url(#paint2_diamond_91_65)" opacity="0.5" shape-rendering="crispEdges"/><rect x="0" y="0" width="419.372" height="383.811" transform="scale(1 -1)" fill="url(#paint2_diamond_91_65)" opacity="0.5" shape-rendering="crispEdges"/><rect x="0" y="0" width="419.372" height="383.811" transform="scale(-1 1)" fill="url(#paint2_diamond_91_65)" opacity="0.5" shape-rendering="crispEdges"/><rect x="0" y="0" width="419.372" height="383.811" transform="scale(-1)" fill="url(#paint2_diamond_91_65)" opacity="0.5" shape-rendering="crispEdges"/></g></g><path fill-rule="evenodd" clip-rule="evenodd" d="M1196.07 391.945C1194.96 392.249 1193.88 392.651 1192.83 393.15C1192.31 393.187 1191.76 393.163 1191.21 393.072C1188.11 392.562 1185.93 390.127 1186.34 387.634C1186.75 385.14 1189.6 383.533 1192.7 384.043C1195.8 384.553 1197.98 386.988 1197.56 389.482C1197.4 390.466 1196.86 391.313 1196.07 391.945Z" data-figma-gradient-fill="{&#34;type&#34;:&#34;GRADIENT_DIAMOND&#34;,&#34;stops&#34;:[{&#34;color&#34;:{&#34;r&#34;:1.0,&#34;g&#34;:0.70588237047195435,&#34;b&#34;:0.16078431904315948,&#34;a&#34;:1.0},&#34;position&#34;:0.0},{&#34;color&#34;:{&#34;r&#34;:1.0,&#34;g&#34;:0.92156863212585449,&#34;b&#34;:0.78039216995239258,&#34;a&#34;:1.0},&#34;position&#34;:1.0}],&#34;stopsVar&#34;:[{&#34;color&#34;:{&#34;r&#34;:1.0,&#34;g&#34;:0.70588237047195435,&#34;b&#34;:0.16078431904315948,&#34;a&#34;:1.0},&#34;position&#34;:0.0},{&#34;color&#34;:{&#34;r&#34;:1.0,&#34;g&#34;:0.92156863212585449,&#34;b&#34;:0.78039216995239258,&#34;a&#34;:1.0},&#34;position&#34;:1.0}],&#34;transform&#34;:{&#34;m00&#34;:-5.0300240516662598,&#34;m01&#34;:-39.572807312011719,&#34;m02&#34;:1214.1922607421875,&#34;m10&#34;:32.174419403076172,&#34;m11&#34;:-6.1866569519042969,&#34;m12&#34;:375.56692504882812},&#34;opacity&#34;:0.50,&#34;blendMode&#34;:&#34;NORMAL&#34;,&#34;visible&#34;:true}"/>
<path d="M1188.5 383.911L1168.59 382.542L1161.7 401.273L1183.18 400.67L1188.5 383.911Z" fill="url(#paint3_linear_91_65)" fill-opacity="0.3"/>
<path fill-rule="evenodd" clip-rule="evenodd" d="M1209.32 385.127L1208.58 387.138L1199.55 387.271C1199 387.279 1198.55 386.838 1198.54 386.286C1198.53 385.734 1198.97 385.279 1199.52 385.271L1209.32 385.127ZM1211.54 379.092L1210.8 381.09C1209.34 381.092 1207.61 381.121 1206.06 381.156C1204.89 381.183 1203.82 381.213 1203.04 381.237C1202.65 381.248 1202.33 381.258 1202.12 381.265L1201.86 381.274L1201.8 381.276L1201.78 381.276L1201.78 381.277L1201.78 381.277L1201.78 381.277L1201.74 380.277C1201.71 379.278 1201.71 379.278 1201.71 379.278L1201.71 379.278L1201.71 379.278L1201.71 379.278L1201.73 379.277L1201.8 379.275L1202.05 379.266C1202.27 379.259 1202.59 379.249 1202.98 379.238C1203.76 379.214 1204.84 379.184 1206.02 379.157C1207.82 379.116 1209.9 379.082 1211.54 379.092ZM1201.74 380.277L1201.78 381.277C1201.23 381.296 1200.76 380.864 1200.74 380.312C1200.72 379.76 1201.16 379.297 1201.71 379.278L1201.74 380.277Z" fill="#FFC31E" fill-opacity="0.3"/>
<path d="M1194.12 357.059V357.059C1192.07 353.505 1189.24 350.46 1185.85 348.152L1184.72 347.38C1178.25 342.983 1170.39 341.135 1162.65 342.194L1161.4 342.365C1151.78 343.68 1143.44 349.682 1139.14 358.385V358.385C1135.08 366.595 1135.11 376.232 1139.2 384.423L1139.39 384.793C1142.66 391.329 1148.2 396.451 1154.97 399.201L1156.45 399.804C1163.1 402.501 1170.41 403.052 1177.38 401.379L1181.06 400.497C1182.56 400.137 1183.78 399.052 1184.31 397.605L1188.45 386.341C1189.09 384.601 1187.83 382.748 1185.98 382.705L1170.36 382.344M1166.78 392.084L1184.44 392.627" stroke="url(#paint4_linear_91_65)" stroke-opacity="0.4" stroke-width="6" stroke-linecap="round"/>
<path d="M1139.16 347.304L1134.07 348.273C1133.71 348.341 1133.38 348.505 1133.1 348.747C1127.87 353.42 1127.72 361.563 1132.78 366.424L1133.31 366.928C1133.4 367.015 1133.52 367.057 1133.65 367.043L1135.01 366.891C1140.96 366.227 1146.97 367.168 1152.44 369.616L1163.47 374.559C1164.61 375.073 1165.93 375.065 1167.07 374.538C1172.73 371.922 1176.08 365.978 1175.39 359.781L1175.36 359.513C1173.73 355.135 1170.27 351.687 1165.88 350.074L1163.05 349.032L1155.29 347.431C1149.97 346.333 1144.49 346.29 1139.16 347.304Z" fill="url(#paint5_linear_91_65)" fill-opacity="0.5"/>
<g clip-path="url(#paint6_diamond_91_65_clip_path)" data-figma-skip-parse="true"><g transform="matrix(-0.0233054 0.0679829 -0.131434 -0.0450571 1147.83 351.09)"><rect x="0" y="0" width="287.138" height="220.26" fill="url(#paint6_diamond_91_65)" opacity="0.5" shape-rendering="crispEdges"/><rect x="0" y="0" width="287.138" height="220.26" transform="scale(1 -1)" fill="url(#paint6_diamond_91_65)" opacity="0.5" shape-rendering="crispEdges"/><rect x="0" y="0" width="287.138" height="220.26" transform="scale(-1 1)" fill="url(#paint6_diamond_91_65)" opacity="0.5" shape-rendering="crispEdges"/><rect x="0" y="0" width="287.138" height="220.26" transform="scale(-1)" fill="url(#paint6_diamond_91_65)" opacity="0.5" shape-rendering="crispEdges"/></g></g><path d="M1136.96 346.306C1135.94 346.675 1135.27 346.955 1134.98 347.081C1134.87 347.129 1134.77 347.19 1134.67 347.262L1133.77 347.916C1129.24 351.222 1128.32 357.606 1131.72 362.066C1131.79 362.159 1131.9 362.208 1132.02 362.195L1133.89 361.986C1139.54 361.356 1145.25 362.049 1150.58 364.01L1161.82 368.143C1163.29 368.684 1164.94 368.378 1166.12 367.346L1166.53 366.989C1169.79 364.134 1171.44 359.864 1170.96 355.557C1170.7 353.222 1169.22 351.201 1167.08 350.245L1162.25 348.093C1160.47 347.302 1158.63 346.677 1156.74 346.224L1155.71 345.977C1149.51 344.49 1142.96 344.137 1136.96 346.306Z" data-figma-gradient-fill="{&#34;type&#34;:&#34;GRADIENT_DIAMOND&#34;,&#34;stops&#34;:[{&#34;color&#34;:{&#34;r&#34;:0.58000004291534424,&#34;g&#34;:0.94400000572204590,&#34;b&#34;:1.0,&#34;a&#34;:1.0},&#34;position&#34;:0.0},{&#34;color&#34;:{&#34;r&#34;:0.17666676640510559,&#34;g&#34;:0.65694439411163330,&#34;b&#34;:1.0,&#34;a&#34;:1.0},&#34;position&#34;:1.0}],&#34;stopsVar&#34;:[{&#34;color&#34;:{&#34;r&#34;:0.58000004291534424,&#34;g&#34;:0.94400000572204590,&#34;b&#34;:1.0,&#34;a&#34;:1.0},&#34;position&#34;:0.0},{&#34;color&#34;:{&#34;r&#34;:0.17666676640510559,&#34;g&#34;:0.65694439411163330,&#34;b&#34;:1.0,&#34;a&#34;:1.0},&#34;position&#34;:1.0}],&#34;transform&#34;:{&#34;m00&#34;:-46.610805511474609,&#34;m01&#34;:-262.86706542968750,&#34;m02&#34;:1302.5714111328125,&#34;m10&#34;:135.96571350097656,&#34;m11&#34;:-90.114227294921875,&#34;m12&#34;:328.16415405273438},&#34;opacity&#34;:0.50,&#34;blendMode&#34;:&#34;NORMAL&#34;,&#34;visible&#34;:true}"/>
<path d="M1140.97 348.285L1142.02 348.339C1143.26 348.403 1144.29 349.307 1144.52 350.524C1144.62 351.104 1144.53 351.703 1144.27 352.229L1144.08 352.597C1143.54 353.649 1142.55 354.4 1141.39 354.637L1139.48 355.028C1138.64 355.2 1137.82 355.461 1137.04 355.805L1136.8 355.909C1136.26 356.144 1135.66 356.172 1135.1 355.989C1133.89 355.586 1133.21 354.288 1133.58 353.059L1133.69 352.685C1134.07 351.417 1134.9 350.322 1136.01 349.606C1137.48 348.66 1139.22 348.195 1140.97 348.285Z" fill="white"/>
<path d="M1224.83 412.957L1206.86 412L1215.8 427.911C1217.46 430.86 1220.51 432.755 1223.89 432.935C1229.34 433.225 1234 428.984 1234.29 423.535C1234.58 418.02 1230.35 413.251 1224.83 412.957Z" fill="#D2DFFF"/>
<path d="M1 68.8881V68.8881C148.061 31.5468 304.035 57.2959 431.29 139.923L600.259 249.635C676.56 299.178 763.095 330.788 853.364 342.091L1005.19 361.102C1111.29 374.388 1203.61 440.101 1250.91 536V536L1 536L1 68.8881Z" fill="url(#paint7_linear_91_65)"/>
<path d="M1 125.251V125.251C209.947 47.2223 444.262 81.157 622.487 215.258L733.361 298.682C804.641 352.314 888.75 386.298 977.28 397.237L1102.95 412.764C1181.01 422.409 1250.15 467.82 1290 535.632V535.632" stroke="#BED6FF" stroke-width="3"/>
<defs>
<clipPath id="paint0_diamond_91_65_clip_path"><ellipse cx="1175.09" cy="376.427" rx="8.78153" ry="6.38657" transform="rotate(2.65995 1175.09 376.427)"/></clipPath><clipPath id="paint1_diamond_91_65_clip_path"><ellipse cx="1189.64" cy="378.625" rx="4.68275" ry="3.69264" transform="rotate(39.3096 1189.64 378.625)"/></clipPath><clipPath id="paint2_diamond_91_65_clip_path"><path fill-rule="evenodd" clip-rule="evenodd" d="M1196.07 391.945C1194.96 392.249 1193.88 392.651 1192.83 393.15C1192.31 393.187 1191.76 393.163 1191.21 393.072C1188.11 392.562 1185.93 390.127 1186.34 387.634C1186.75 385.14 1189.6 383.533 1192.7 384.043C1195.8 384.553 1197.98 386.988 1197.56 389.482C1197.4 390.466 1196.86 391.313 1196.07 391.945Z"/></clipPath><clipPath id="paint6_diamond_91_65_clip_path"><path d="M1136.96 346.306C1135.94 346.675 1135.27 346.955 1134.98 347.081C1134.87 347.129 1134.77 347.19 1134.67 347.262L1133.77 347.916C1129.24 351.222 1128.32 357.606 1131.72 362.066C1131.79 362.159 1131.9 362.208 1132.02 362.195L1133.89 361.986C1139.54 361.356 1145.25 362.049 1150.58 364.01L1161.82 368.143C1163.29 368.684 1164.94 368.378 1166.12 367.346L1166.53 366.989C1169.79 364.134 1171.44 359.864 1170.96 355.557C1170.7 353.222 1169.22 351.201 1167.08 350.245L1162.25 348.093C1160.47 347.302 1158.63 346.677 1156.74 346.224L1155.71 345.977C1149.51 344.49 1142.96 344.137 1136.96 346.306Z"/></clipPath><linearGradient id="paint0_diamond_91_65" x1="0" y1="0" x2="500" y2="500" gradientUnits="userSpaceOnUse">
<stop stop-color="#FFB429"/>
<stop offset="1" stop-color="#FFEBC7"/>
</linearGradient>
<linearGradient id="paint1_diamond_91_65" x1="0" y1="0" x2="500" y2="500" gradientUnits="userSpaceOnUse">
<stop stop-color="#FFB429"/>
<stop offset="1" stop-color="#FFEBC7"/>
</linearGradient>
<linearGradient id="paint2_diamond_91_65" x1="0" y1="0" x2="500" y2="500" gradientUnits="userSpaceOnUse">
<stop stop-color="#FFB429"/>
<stop offset="1" stop-color="#FFEBC7"/>
</linearGradient>
<linearGradient id="paint3_linear_91_65" x1="1169.3" y1="392.161" x2="1182.04" y2="396.846" gradientUnits="userSpaceOnUse">
<stop stop-color="#FFE9AB"/>
<stop offset="1" stop-color="#FFC65D"/>
</linearGradient>
<linearGradient id="paint4_linear_91_65" x1="1203.35" y1="352.796" x2="1127.9" y2="391.394" gradientUnits="userSpaceOnUse">
<stop stop-color="#0195FF"/>
<stop offset="1" stop-color="#163CFC"/>
</linearGradient>
<linearGradient id="paint5_linear_91_65" x1="1173.82" y1="368.306" x2="1157.78" y2="372.612" gradientUnits="userSpaceOnUse">
<stop stop-color="#63D9FF"/>
<stop offset="0.534" stop-color="#37CDFD"/>
<stop offset="1" stop-color="#2CCBFF"/>
</linearGradient>
<linearGradient id="paint6_diamond_91_65" x1="0" y1="0" x2="500" y2="500" gradientUnits="userSpaceOnUse">
<stop stop-color="#94F1FF"/>
<stop offset="1" stop-color="#2DA8FF"/>
</linearGradient>
<linearGradient id="paint7_linear_91_65" x1="0.999992" y1="71.4668" x2="1100.08" y2="772.475" gradientUnits="userSpaceOnUse">
<stop stop-color="#D7F5FF"/>
<stop offset="1" stop-color="#D1DDFF"/>
</linearGradient>
</defs>
</svg>
