<svg width="60" height="60" viewBox="0 0 60 60" fill="none" xmlns="http://www.w3.org/2000/svg">
<path d="M0.5 0.5H59.5V59.5H0.5V0.5Z" fill="white" fill-opacity="0.01"/>
<path d="M28 11.5H29.739C34.4332 11.5 38.9814 13.1318 42.605 16.1159L45.5 18.5L48.9159 21.9159C50.1515 23.1515 52.0534 23.4254 53.5874 22.5887C54.8998 21.8728 56.5 22.8227 56.5 24.3177V30.2858C56.5 31.8991 55.4478 33.3238 53.9058 33.7982L53.6511 33.8766C51.2748 34.6078 49.1812 36.0528 47.6547 38.0153L46.5 39.5C42.7549 45.1177 36.4446 48.5 29.693 48.5H28C17.7827 48.5 9.5 40.2173 9.5 30C9.5 19.7827 17.7827 11.5 28 11.5Z" fill="#FFE9AB"/>
<path fill-rule="evenodd" clip-rule="evenodd" d="M10.4193 35.7752C11.9239 34.6689 13.9406 33.6969 16.5 33.5C19.4491 33.2731 24.1478 34.1785 28.4016 35.2353C34.7746 36.8187 41.3855 37.4792 47.8759 36.4806C48.3482 36.408 48.8216 36.3435 49.2959 36.2873C50.5585 35.1963 52.0398 34.3724 53.6511 33.8766L53.9058 33.7982C55.4461 33.3243 56.4977 31.9022 56.5 30.2911C56.5 30.2894 56.5 30.2876 56.5 30.2858V24.3177C56.5 24.3164 56.5 24.315 56.5 24.3137C56.4971 22.821 54.8987 21.8735 53.5874 22.5887C52.0534 23.4254 50.1515 23.1515 48.9159 21.9159L45.5 18.5L42.605 16.1159C38.9814 13.1318 34.4332 11.5 29.739 11.5H28C17.7827 11.5 9.5 19.7827 9.5 30C9.5 32.0167 9.8227 33.9581 10.4193 35.7752Z" fill="#FFD562"/>
<g clip-path="url(#paint0_diamond_39_123_clip_path)" data-figma-skip-parse="true"><g transform="matrix(0.00549998 0.0185 -0.0210876 0.00626928 34.5 31)"><rect x="0" y="0" width="264.777" height="299.295" fill="url(#paint0_diamond_39_123)" opacity="1" shape-rendering="crispEdges"/><rect x="0" y="0" width="264.777" height="299.295" transform="scale(1 -1)" fill="url(#paint0_diamond_39_123)" opacity="1" shape-rendering="crispEdges"/><rect x="0" y="0" width="264.777" height="299.295" transform="scale(-1 1)" fill="url(#paint0_diamond_39_123)" opacity="1" shape-rendering="crispEdges"/><rect x="0" y="0" width="264.777" height="299.295" transform="scale(-1)" fill="url(#paint0_diamond_39_123)" opacity="1" shape-rendering="crispEdges"/></g></g><ellipse cx="34.5" cy="31" rx="5.5" ry="4" transform="rotate(-17.5355 34.5 31)" data-figma-gradient-fill="{&#34;type&#34;:&#34;GRADIENT_DIAMOND&#34;,&#34;stops&#34;:[{&#34;color&#34;:{&#34;r&#34;:1.0,&#34;g&#34;:0.70687502622604370,&#34;b&#34;:0.16249999403953552,&#34;a&#34;:1.0},&#34;position&#34;:0.0},{&#34;color&#34;:{&#34;r&#34;:1.0,&#34;g&#34;:0.92291343212127686,&#34;b&#34;:0.78000003099441528,&#34;a&#34;:1.0},&#34;position&#34;:1.0}],&#34;stopsVar&#34;:[{&#34;color&#34;:{&#34;r&#34;:1.0,&#34;g&#34;:0.70687502622604370,&#34;b&#34;:0.16249999403953552,&#34;a&#34;:1.0},&#34;position&#34;:0.0},{&#34;color&#34;:{&#34;r&#34;:1.0,&#34;g&#34;:0.92291343212127686,&#34;b&#34;:0.78000003099441528,&#34;a&#34;:1.0},&#34;position&#34;:1.0}],&#34;transform&#34;:{&#34;m00&#34;:10.999962806701660,&#34;m01&#34;:-42.175289154052734,&#34;m02&#34;:50.087680816650391,&#34;m10&#34;:36.999996185302734,&#34;m11&#34;:12.538558959960938,&#34;m12&#34;:6.2307200431823730},&#34;opacity&#34;:1.0,&#34;blendMode&#34;:&#34;NORMAL&#34;,&#34;visible&#34;:true}"/>
<g clip-path="url(#paint1_diamond_39_123_clip_path)" data-figma-skip-parse="true"><g transform="matrix(-0.00381961 0.0104849 -0.0110119 -0.00404614 43.5285 29.1456)"><rect x="0" y="0" width="303.346" height="339.641" fill="url(#paint1_diamond_39_123)" opacity="1" shape-rendering="crispEdges"/><rect x="0" y="0" width="303.346" height="339.641" transform="scale(1 -1)" fill="url(#paint1_diamond_39_123)" opacity="1" shape-rendering="crispEdges"/><rect x="0" y="0" width="303.346" height="339.641" transform="scale(-1 1)" fill="url(#paint1_diamond_39_123)" opacity="1" shape-rendering="crispEdges"/><rect x="0" y="0" width="303.346" height="339.641" transform="scale(-1)" fill="url(#paint1_diamond_39_123)" opacity="1" shape-rendering="crispEdges"/></g></g><ellipse cx="43.5285" cy="29.1456" rx="2.93288" ry="2.31275" transform="rotate(19.1142 43.5285 29.1456)" data-figma-gradient-fill="{&#34;type&#34;:&#34;GRADIENT_DIAMOND&#34;,&#34;stops&#34;:[{&#34;color&#34;:{&#34;r&#34;:1.0,&#34;g&#34;:0.70687502622604370,&#34;b&#34;:0.16249999403953552,&#34;a&#34;:1.0},&#34;position&#34;:0.0},{&#34;color&#34;:{&#34;r&#34;:1.0,&#34;g&#34;:0.92291343212127686,&#34;b&#34;:0.78000003099441528,&#34;a&#34;:1.0},&#34;position&#34;:1.0}],&#34;stopsVar&#34;:[{&#34;color&#34;:{&#34;r&#34;:1.0,&#34;g&#34;:0.70687502622604370,&#34;b&#34;:0.16249999403953552,&#34;a&#34;:1.0},&#34;position&#34;:0.0},{&#34;color&#34;:{&#34;r&#34;:1.0,&#34;g&#34;:0.92291343212127686,&#34;b&#34;:0.78000003099441528,&#34;a&#34;:1.0},&#34;position&#34;:1.0}],&#34;transform&#34;:{&#34;m00&#34;:-7.6392149925231934,&#34;m01&#34;:-22.023796081542969,&#34;m02&#34;:58.360023498535156,&#34;m10&#34;:20.969715118408203,&#34;m11&#34;:-8.0922813415527344,&#34;m12&#34;:22.706897735595703},&#34;opacity&#34;:1.0,&#34;blendMode&#34;:&#34;NORMAL&#34;,&#34;visible&#34;:true}"/>
<g clip-path="url(#paint2_diamond_39_123_clip_path)" data-figma-skip-parse="true"><g transform="matrix(0.002 0.01 -0.0122995 0.00245989 47 34.5)"><rect x="0" y="0" width="462.49" height="418.868" fill="url(#paint2_diamond_39_123)" opacity="0.8" shape-rendering="crispEdges"/><rect x="0" y="0" width="462.49" height="418.868" transform="scale(1 -1)" fill="url(#paint2_diamond_39_123)" opacity="0.8" shape-rendering="crispEdges"/><rect x="0" y="0" width="462.49" height="418.868" transform="scale(-1 1)" fill="url(#paint2_diamond_39_123)" opacity="0.8" shape-rendering="crispEdges"/><rect x="0" y="0" width="462.49" height="418.868" transform="scale(-1)" fill="url(#paint2_diamond_39_123)" opacity="0.8" shape-rendering="crispEdges"/></g></g><path fill-rule="evenodd" clip-rule="evenodd" d="M50.1905 35.5849C49.6022 36.0037 49.0512 36.4753 48.5446 36.9946C48.2448 37.1293 47.9199 37.233 47.5758 37.2989C45.6441 37.6689 43.8369 36.7087 43.5391 35.1543C43.2414 33.6 44.5659 32.0399 46.4976 31.6699C48.4292 31.2999 50.2365 32.2601 50.5342 33.8145C50.6518 34.4283 50.5164 35.043 50.1905 35.5849Z" data-figma-gradient-fill="{&#34;type&#34;:&#34;GRADIENT_DIAMOND&#34;,&#34;stops&#34;:[{&#34;color&#34;:{&#34;r&#34;:1.0,&#34;g&#34;:0.70588237047195435,&#34;b&#34;:0.16078431904315948,&#34;a&#34;:1.0},&#34;position&#34;:0.0},{&#34;color&#34;:{&#34;r&#34;:1.0,&#34;g&#34;:0.92156863212585449,&#34;b&#34;:0.78039216995239258,&#34;a&#34;:1.0},&#34;position&#34;:1.0}],&#34;stopsVar&#34;:[{&#34;color&#34;:{&#34;r&#34;:1.0,&#34;g&#34;:0.70588237047195435,&#34;b&#34;:0.16078431904315948,&#34;a&#34;:1.0},&#34;position&#34;:0.0},{&#34;color&#34;:{&#34;r&#34;:1.0,&#34;g&#34;:0.92156863212585449,&#34;b&#34;:0.78039216995239258,&#34;a&#34;:1.0},&#34;position&#34;:1.0}],&#34;transform&#34;:{&#34;m00&#34;:4.0000004768371582,&#34;m01&#34;:-24.598926544189453,&#34;m02&#34;:57.299461364746094,&#34;m10&#34;:20.0,&#34;m11&#34;:4.9197874069213867,&#34;m12&#34;:22.040107727050781},&#34;opacity&#34;:0.80000001192092896,&#34;blendMode&#34;:&#34;NORMAL&#34;,&#34;visible&#34;:true}"/>
<path d="M44 32.5L32 36V48.5L44.5 43.5L44 32.5Z" fill="url(#paint3_linear_39_123)"/>
<path fill-rule="evenodd" clip-rule="evenodd" d="M56.5 28.3132V30.2858C56.5 30.3433 56.4987 30.4006 56.496 30.4576L51.359 32.4333C50.8435 32.6316 50.2649 32.3745 50.0667 31.859C49.8684 31.3435 50.1256 30.7649 50.641 30.5667L56.5 28.3132ZM56.4998 24.2888C56.5 24.2984 56.5 24.308 56.5 24.3177V26.4178C55.6736 26.7245 54.7266 27.0916 53.8665 27.4304C53.1819 27.7001 52.5592 27.9492 52.1076 28.1309C51.8819 28.2217 51.6991 28.2956 51.5728 28.3467L51.4275 28.4057L51.3899 28.421L51.3804 28.4248L51.378 28.4258L51.3775 28.426L51.3773 28.4261L51 27.5L50.6228 26.5739L50.623 26.5738L50.6237 26.5735L50.6262 26.5725L50.6361 26.5685L50.6746 26.5528L50.8218 26.4931C50.9494 26.4414 51.1338 26.3669 51.3612 26.2754C51.8159 26.0925 52.4432 25.8415 53.1335 25.5696C54.2315 25.1371 55.5067 24.6442 56.4998 24.2888ZM51 27.5L51.3773 28.4261C50.8659 28.6345 50.2823 28.3888 50.0739 27.8773C49.8656 27.3658 50.1113 26.7823 50.6227 26.5739L51 27.5Z" fill="#FFC31E" fill-opacity="0.8"/>
<path d="M41.5 15.5V15.5C39.5255 13.8546 37.205 12.6762 34.7115 12.0529L33.8779 11.8445C29.1284 10.6571 24.1074 11.2711 19.7839 13.5679L19.086 13.9387C13.7168 16.7911 10.1131 22.122 9.46729 28.1674V28.1674C8.85801 33.8709 10.956 39.5304 15.1358 43.4586L15.325 43.6365C18.6604 46.7711 23.0231 48.5841 27.5978 48.7366L28.6011 48.77C33.0876 48.9196 37.5084 47.6611 41.2434 45.1711L43.2141 43.8573C44.0175 43.3217 44.5 42.4201 44.5 41.4545V33.9377C44.5 32.7765 43.3578 31.9598 42.259 32.3354L33 35.5M33 42L43.5 38.5" stroke="url(#paint4_linear_39_123)" stroke-width="4" stroke-linecap="round"/>
<path d="M7.08403 21.6496L4.29859 23.3208C4.10321 23.4381 3.94336 23.6062 3.83614 23.8072C1.76735 27.6862 3.44074 32.5053 7.46832 34.2674L7.88607 34.4502C7.95826 34.4817 8.04075 34.4796 8.11122 34.4444L8.8794 34.0603C12.2319 32.384 15.9721 31.636 19.7114 31.8939L27.2641 32.4148C28.0493 32.4689 28.8195 32.1805 29.376 31.624C32.1374 28.8626 32.822 24.644 31.0755 21.1511L31 21C29.0959 18.7785 26.3161 17.5 23.3902 17.5H21.5L16.5929 18.2361C13.2304 18.7404 9.99962 19.9002 7.08403 21.6496Z" fill="url(#paint5_linear_39_123)"/>
<g clip-path="url(#paint6_diamond_39_123_clip_path)" data-figma-skip-parse="true"><g transform="matrix(0.001 0.045 -0.087 0.00193334 13 22)"><rect x="0" y="0" width="321.076" height="237.814" fill="url(#paint6_diamond_39_123)" opacity="1" shape-rendering="crispEdges"/><rect x="0" y="0" width="321.076" height="237.814" transform="scale(1 -1)" fill="url(#paint6_diamond_39_123)" opacity="1" shape-rendering="crispEdges"/><rect x="0" y="0" width="321.076" height="237.814" transform="scale(-1 1)" fill="url(#paint6_diamond_39_123)" opacity="1" shape-rendering="crispEdges"/><rect x="0" y="0" width="321.076" height="237.814" transform="scale(-1)" fill="url(#paint6_diamond_39_123)" opacity="1" shape-rendering="crispEdges"/></g></g><path d="M5.57455 21.5391C5.05499 21.9762 4.72385 22.2847 4.58111 22.4213C4.526 22.474 4.4787 22.532 4.4364 22.5954L4.0506 23.1741C2.102 26.097 2.93653 30.0505 5.90023 31.9365C5.96213 31.9759 6.04015 31.9799 6.10578 31.9471L7.16067 31.4197C10.3432 29.8284 13.8524 29 17.4105 29H24.9075C25.8892 29 26.7925 28.4638 27.2626 27.6019L27.4253 27.3037C28.725 24.9207 28.7763 22.0525 27.5623 19.6247C26.9043 18.3086 25.598 17.4399 24.1298 17.342L20.8246 17.1216C19.6108 17.0407 18.3921 17.0715 17.1839 17.2137L16.5266 17.291C12.5582 17.7579 8.63216 18.9668 5.57455 21.5391Z" data-figma-gradient-fill="{&#34;type&#34;:&#34;GRADIENT_DIAMOND&#34;,&#34;stops&#34;:[{&#34;color&#34;:{&#34;r&#34;:0.58000004291534424,&#34;g&#34;:0.94400000572204590,&#34;b&#34;:1.0,&#34;a&#34;:1.0},&#34;position&#34;:0.0},{&#34;color&#34;:{&#34;r&#34;:0.17666676640510559,&#34;g&#34;:0.65694439411163330,&#34;b&#34;:1.0,&#34;a&#34;:1.0},&#34;position&#34;:1.0}],&#34;stopsVar&#34;:[{&#34;color&#34;:{&#34;r&#34;:0.58000004291534424,&#34;g&#34;:0.94400000572204590,&#34;b&#34;:1.0,&#34;a&#34;:1.0},&#34;position&#34;:0.0},{&#34;color&#34;:{&#34;r&#34;:0.17666676640510559,&#34;g&#34;:0.65694439411163330,&#34;b&#34;:1.0,&#34;a&#34;:1.0},&#34;position&#34;:1.0}],&#34;transform&#34;:{&#34;m00&#34;:2.0000038146972656,&#34;m01&#34;:-173.99998474121094,&#34;m02&#34;:98.999992370605469,&#34;m10&#34;:89.999992370605469,&#34;m11&#34;:3.8666732311248779,&#34;m12&#34;:-24.933330535888672},&#34;opacity&#34;:1.0,&#34;blendMode&#34;:&#34;NORMAL&#34;,&#34;visible&#34;:true}"/>
<path d="M8.36181 21.8342L8.98989 21.6392C9.73048 21.4092 10.5321 21.7175 10.9277 22.3845C11.1162 22.7023 11.1944 23.0735 11.15 23.4403L11.1189 23.6974C11.03 24.4323 10.6119 25.087 9.98255 25.4767L8.94363 26.12C8.48668 26.4029 8.06096 26.7334 7.67355 27.1059L7.55726 27.2177C7.29302 27.4718 6.9441 27.6191 6.57772 27.6313C5.77494 27.658 5.0966 27.0412 5.04697 26.2395L5.03187 25.9957C4.98062 25.1678 5.22999 24.3456 5.73033 23.684C6.39191 22.8092 7.31433 22.1595 8.36181 21.8342Z" fill="white"/>
<defs>
<clipPath id="paint0_diamond_39_123_clip_path"><ellipse cx="34.5" cy="31" rx="5.5" ry="4" transform="rotate(-17.5355 34.5 31)"/></clipPath><clipPath id="paint1_diamond_39_123_clip_path"><ellipse cx="43.5285" cy="29.1456" rx="2.93288" ry="2.31275" transform="rotate(19.1142 43.5285 29.1456)"/></clipPath><clipPath id="paint2_diamond_39_123_clip_path"><path fill-rule="evenodd" clip-rule="evenodd" d="M50.1905 35.5849C49.6022 36.0037 49.0512 36.4753 48.5446 36.9946C48.2448 37.1293 47.9199 37.233 47.5758 37.2989C45.6441 37.6689 43.8369 36.7087 43.5391 35.1543C43.2414 33.6 44.5659 32.0399 46.4976 31.6699C48.4292 31.2999 50.2365 32.2601 50.5342 33.8145C50.6518 34.4283 50.5164 35.043 50.1905 35.5849Z"/></clipPath><clipPath id="paint6_diamond_39_123_clip_path"><path d="M5.57455 21.5391C5.05499 21.9762 4.72385 22.2847 4.58111 22.4213C4.526 22.474 4.4787 22.532 4.4364 22.5954L4.0506 23.1741C2.102 26.097 2.93653 30.0505 5.90023 31.9365C5.96213 31.9759 6.04015 31.9799 6.10578 31.9471L7.16067 31.4197C10.3432 29.8284 13.8524 29 17.4105 29H24.9075C25.8892 29 26.7925 28.4638 27.2626 27.6019L27.4253 27.3037C28.725 24.9207 28.7763 22.0525 27.5623 19.6247C26.9043 18.3086 25.598 17.4399 24.1298 17.342L20.8246 17.1216C19.6108 17.0407 18.3921 17.0715 17.1839 17.2137L16.5266 17.291C12.5582 17.7579 8.63216 18.9668 5.57455 21.5391Z"/></clipPath><linearGradient id="paint0_diamond_39_123" x1="0" y1="0" x2="500" y2="500" gradientUnits="userSpaceOnUse">
<stop stop-color="#FFB429"/>
<stop offset="1" stop-color="#FFEBC7"/>
</linearGradient>
<linearGradient id="paint1_diamond_39_123" x1="0" y1="0" x2="500" y2="500" gradientUnits="userSpaceOnUse">
<stop stop-color="#FFB429"/>
<stop offset="1" stop-color="#FFEBC7"/>
</linearGradient>
<linearGradient id="paint2_diamond_39_123" x1="0" y1="0" x2="500" y2="500" gradientUnits="userSpaceOnUse">
<stop stop-color="#FFB429"/>
<stop offset="1" stop-color="#FFEBC7"/>
</linearGradient>
<linearGradient id="paint3_linear_39_123" x1="34.5" y1="41.5" x2="43" y2="41.5" gradientUnits="userSpaceOnUse">
<stop stop-color="#FFE9AB"/>
<stop offset="1" stop-color="#FFC65D"/>
</linearGradient>
<linearGradient id="paint4_linear_39_123" x1="46" y1="11" x2="10" y2="50" gradientUnits="userSpaceOnUse">
<stop stop-color="#0195FF"/>
<stop offset="1" stop-color="#163CFC"/>
</linearGradient>
<linearGradient id="paint5_linear_39_123" x1="32" y1="26.5" x2="23.5" y2="32.5" gradientUnits="userSpaceOnUse">
<stop stop-color="#63D9FF"/>
<stop offset="0.534" stop-color="#37CDFD"/>
<stop offset="1" stop-color="#2CCBFF"/>
</linearGradient>
<linearGradient id="paint6_diamond_39_123" x1="0" y1="0" x2="500" y2="500" gradientUnits="userSpaceOnUse">
<stop stop-color="#94F1FF"/>
<stop offset="1" stop-color="#2DA8FF"/>
</linearGradient>
</defs>
</svg>
